<?xml version="1.0" standalone="no"?>
<!DOCTYPE svg PUBLIC "-//W3C//DTD SVG 20010904//EN"
 "http://www.w3.org/TR/2001/REC-SVG-20010904/DTD/svg10.dtd">
<svg version="1.0" xmlns="http://www.w3.org/2000/svg"
 width="256.000000pt" height="256.000000pt" viewBox="0 0 256.000000 256.000000"
 preserveAspectRatio="xMidYMid meet">

<g transform="translate(0.000000,256.000000) scale(0.100000,-0.100000)"
fill="#000000" stroke="none">
<path d="M1120 2546 c-348 -74 -604 -327 -675 -668 -20 -91 -19 -250 1 -346
65 -317 316 -575 637 -654 l87 -21 0 -164 0 -163 -124 0 c-107 0 -127 -3 -148
-20 -60 -47 -57 -133 6 -171 26 -16 50 -19 149 -19 l117 0 0 -110 c0 -127 13
-171 59 -194 38 -20 64 -20 102 0 46 23 59 67 59 194 l0 110 118 0 c98 0 122
3 148 19 63 38 66 124 6 171 -21 17 -41 20 -148 20 l-124 0 0 163 0 164 87 21
c321 79 572 337 637 654 55 267 -23 551 -208 755 -98 108 -267 209 -416 248
-88 23 -286 28 -370 11z m273 -211 c188 -33 372 -168 457 -335 62 -121 84
-288 56 -420 -50 -239 -244 -440 -476 -494 -83 -20 -217 -20 -300 0 -175 41
-340 172 -419 334 -54 112 -75 208 -68 325 15 240 148 435 371 541 74 35 184
62 261 63 22 0 75 -6 118 -14z"/>
</g>
</svg>
