<?xml version="1.0" standalone="no"?>
<!DOCTYPE svg PUBLIC "-//W3C//DTD SVG 20010904//EN"
 "http://www.w3.org/TR/2001/REC-SVG-20010904/DTD/svg10.dtd">
<svg version="1.0" xmlns="http://www.w3.org/2000/svg"
 width="256.000000pt" height="256.000000pt" viewBox="0 0 256.000000 256.000000"
 preserveAspectRatio="xMidYMid meet">

<g transform="translate(0.000000,256.000000) scale(0.100000,-0.100000)"
fill="#000000" stroke="none">
<path d="M1414 2100 c-28 -11 -54 -48 -54 -78 0 -12 11 -34 25 -47 24 -25 24
-25 237 -25 l213 0 -242 -241 -241 -242 -48 30 c-250 151 -548 117 -755 -87
-130 -128 -186 -275 -177 -467 8 -161 61 -283 175 -396 115 -116 235 -168 402
-175 128 -5 189 7 301 60 68 32 100 56 160 117 86 88 132 166 160 277 42 165
17 328 -73 478 l-30 48 242 241 241 242 0 -213 c0 -213 0 -213 25 -237 31 -32
66 -32 102 -1 l28 24 3 249 c4 294 -2 337 -57 392 -25 25 -54 42 -84 49 -54
14 -520 15 -553 2z m-305 -689 c83 -26 137 -60 198 -123 82 -88 123 -190 123
-307 -1 -337 -345 -554 -649 -409 -327 156 -340 628 -21 802 106 58 237 72
349 37z"/>
</g>
</svg>
