<svg width="57" height="52" viewBox="0 0 57 52" fill="none" xmlns="http://www.w3.org/2000/svg">
<path d="M18.0277 0.258589C16.7199 0.63113 15.237 1.94744 14.4313 3.4376C12.9717 6.14472 12.7382 10.2675 13.8241 13.7569C15.5406 19.2084 19.7909 21.8535 23.2705 19.6431C24.0295 19.1588 25.1154 17.9542 25.5941 17.0477C27.0537 14.3406 27.2873 10.2178 26.2013 6.72836C24.7067 1.99711 21.3322 -0.685179 18.0277 0.258589Z" fill="#1B071F"/>
<path d="M35.4375 0.258591C34.3516 0.56904 33.4408 1.1651 32.4483 2.23305C29.5759 5.31271 28.4549 10.876 29.8328 15.2719C30.2765 16.6876 30.7319 17.532 31.5726 18.4882C35.0522 22.4247 40.3184 20.1025 42.3151 13.757C43.2025 10.9381 43.2375 7.83357 42.4202 5.21337C41.9764 3.79772 41.5211 2.95329 40.6803 1.99711C39.2091 0.333099 37.3408 -0.287802 35.4375 0.258591Z" fill="#1B071F"/>
<path d="M4.5412 13.1485C3.53701 13.4217 2.81306 13.8687 2.05408 14.6635C0.851385 15.9425 0.197495 17.7059 0.0807284 19.9908C-0.0944209 23.6541 1.47025 27.7148 4.07413 30.335C6.57293 32.8434 9.31693 33.4892 11.7573 32.1356C13.649 31.0801 14.8049 28.7952 14.9567 25.8273C15.1319 22.1639 13.5906 18.1405 10.975 15.4955C9.90077 14.4027 8.86155 13.7073 7.75227 13.3348C6.80646 13.0119 5.32353 12.925 4.5412 13.1485Z" fill="#1B071F"/>
<path d="M48.7722 13.223C45.4794 14.1419 42.5953 17.7555 41.486 22.3502C41.1357 23.8155 41.1007 26.6344 41.4276 27.8638C42.607 32.3964 46.542 34.11 50.3719 31.763C51.3878 31.1421 53.3144 29.0808 54.0267 27.8638C54.7507 26.622 55.3462 25.1567 55.7081 23.6789C56.0935 22.1267 56.1519 19.3575 55.8249 18.066C54.8674 14.2661 52.03 12.3165 48.7722 13.223Z" fill="#1B071F"/>
<path d="M26.8435 21.9901C26.7151 22.0149 26.3181 22.1018 25.9678 22.1764C25.6175 22.2509 24.8819 22.5365 24.3331 22.8097C22.5699 23.7038 21.1687 25.4299 18.6115 29.8631C17.3855 31.9741 16.4046 33.0297 14.4546 34.3211C11.337 36.395 10.7065 36.8793 9.85406 37.7982C8.42951 39.338 7.77562 40.9399 7.67053 43.1628C7.54209 45.696 8.25436 47.6705 9.90077 49.4214C10.9867 50.5639 11.8624 51.1103 13.1936 51.4704C15.1319 52.0044 16.79 51.7436 21.4723 50.1665C25.7343 48.7384 26.5983 48.5522 28.595 48.6515C30.2298 48.7384 31.0238 48.9247 34.2699 50.0299C39.2324 51.7063 40.7387 51.9795 42.7237 51.5325C44.7672 51.073 46.7055 49.4463 47.6513 47.3725C48.9124 44.6157 48.7372 41.4367 47.1959 38.9779C46.2734 37.5126 45.5028 36.8544 41.6845 34.3211C39.7112 33.0173 38.6369 31.8624 37.4693 29.801C34.5968 24.722 32.9504 22.9711 30.4049 22.2136C29.7744 22.0273 27.2989 21.8659 26.8435 21.9901Z" fill="#1B071F"/>
</svg>
